<?xml version="1.0" standalone="no"?>
<!DOCTYPE svg PUBLIC "-//W3C//DTD SVG 20010904//EN"
 "http://www.w3.org/TR/2001/REC-SVG-20010904/DTD/svg10.dtd">
<svg version="1.0" xmlns="http://www.w3.org/2000/svg"
 width="626.000000pt" height="365.000000pt" viewBox="0 0 626.000000 365.000000"
 preserveAspectRatio="xMidYMid meet">
<metadata>
Created by potrace 1.16, written by Peter Selinger 2001-2019
</metadata>
<g transform="translate(0.000000,365.000000) scale(0.100000,-0.100000)"
fill="#000000" stroke="none">
<path d="M2559 3367 c-21 -14 -64 -28 -109 -35 -125 -21 -240 -89 -240 -143 0
-11 -18 -35 -39 -54 -70 -63 -76 -150 -28 -395 22 -114 22 -115 25 -57 2 31 6
57 9 57 4 0 37 -10 75 -22 57 -18 68 -25 68 -44 0 -32 39 -73 75 -80 38 -7
104 39 105 73 0 32 34 48 71 33 20 -9 29 -19 29 -35 0 -31 53 -75 91 -75 32 0
78 37 80 65 1 8 2 20 3 27 1 12 131 60 139 51 3 -2 3 -30 0 -61 -7 -70 3 -64
24 15 18 68 18 68 34 205 11 94 11 113 -4 167 -9 33 -17 80 -17 103 0 66 -29
104 -92 123 -29 8 -75 31 -102 50 -83 59 -143 68 -197 32z m-244 -338 c55 -33
150 -37 225 -10 51 19 65 20 101 11 23 -7 80 -10 126 -9 76 3 85 1 98 -19 26
-36 42 -93 49 -173 l7 -76 -73 -25 -74 -24 -26 28 c-35 38 -80 38 -119 -2 -26
-26 -33 -28 -54 -18 -19 8 -32 8 -51 -1 -23 -10 -29 -8 -54 19 -37 39 -86 41
-123 4 l-25 -25 -71 21 c-39 12 -73 25 -76 30 -10 17 15 172 36 212 23 46 47
78 60 78 4 0 24 -10 44 -21z m144 -303 c30 -32 26 -82 -11 -109 -67 -50 -151
39 -98 106 28 35 77 37 109 3z m266 18 c44 -17 48 -99 7 -130 -56 -43 -139 22
-112 87 19 44 59 60 105 43z"/>
<path d="M1006 2360 c-16 -5 -40 -19 -54 -32 -51 -48 -52 -55 -52 -518 0 -236
2 -430 4 -430 2 0 20 7 40 15 l36 15 0 435 0 435 645 0 c355 0 645 2 645 5 0
12 -33 70 -43 77 -16 10 -1187 8 -1221 -2z"/>
<path d="M2840 2338 c-11 -18 -20 -39 -20 -45 0 -10 114 -13 535 -13 l535 0 0
-537 1 -538 39 45 40 45 0 483 c0 536 2 521 -67 563 l-37 23 -502 4 -503 4
-21 -34z"/>
<path d="M2964 2085 c90 -119 149 -230 181 -338 19 -66 45 -219 45 -269 0 -28
4 -38 15 -38 12 0 15 8 11 33 -3 17 -8 64 -12 102 -8 89 -44 233 -78 309 -34
77 -105 175 -153 211 l-38 29 29 -39z"/>
<path d="M2108 1864 c-5 -4 -8 -61 -8 -126 0 -114 -1 -119 -22 -127 -51 -20
-94 -95 -117 -200 -15 -69 -33 -335 -25 -367 8 -31 46 -51 104 -56 40 -3 45
-1 48 20 4 26 -21 40 -42 23 -20 -17 -64 -3 -82 24 -13 20 -14 41 -4 147 23
253 54 349 121 384 62 32 131 -16 163 -113 35 -107 59 -391 35 -419 -19 -23
-52 -34 -66 -22 -18 15 -43 2 -43 -22 0 -30 21 -33 71 -12 72 31 73 34 66 195
-10 213 -41 329 -103 390 -15 16 -40 31 -56 34 l-27 5 -3 125 c-2 69 -6 121
-10 117z"/>
<path d="M938 1265 l-38 -64 0 -213 0 -213 37 85 c35 80 37 92 40 210 2 69 3
155 1 192 l-3 66 -37 -63z"/>
<path d="M3761 1129 c-47 -24 -77 -65 -87 -116 -6 -33 -7 -33 -63 -33 -66 0
-116 -26 -132 -67 -6 -15 -10 -113 -9 -226 0 -207 6 -242 47 -266 10 -6 14
-11 8 -11 -5 0 -639 0 -1407 0 -1174 0 -1398 -2 -1398 -13 0 -24 22 -81 38
-100 14 -16 108 -17 1713 -17 l1698 0 16 23 c8 12 20 39 26 60 9 36 11 37 57
38 26 1 57 0 69 -1 42 -3 102 21 127 51 l26 31 0 215 0 215 -34 34 c-38 38
-34 37 -195 38 l-115 1 -6 30 c-10 46 -27 71 -67 102 -34 26 -43 28 -152 31
-103 3 -121 0 -160 -19z m270 -59 c22 -13 52 -67 44 -80 -4 -6 -75 -10 -171
-10 -159 0 -164 1 -164 21 0 11 13 34 29 50 29 28 32 29 136 29 58 0 115 -5
126 -10z m-71 -279 c5 -11 10 -36 10 -55 l0 -36 48 0 c58 0 75 -10 70 -41 -3
-22 -9 -24 -60 -27 l-57 -3 -3 -61 c-3 -64 -19 -87 -52 -75 -12 5 -16 20 -16
71 l0 65 -56 3 c-104 6 -96 68 8 68 l48 0 0 43 c0 62 37 91 60 48z m-870 -431
c0 -14 -1107 -13 -1115 0 -4 7 177 10 554 10 355 0 561 -4 561 -10z"/>
</g>
</svg>
