<?xml version="1.0" standalone="no"?>
<!DOCTYPE svg PUBLIC "-//W3C//DTD SVG 20010904//EN"
 "http://www.w3.org/TR/2001/REC-SVG-20010904/DTD/svg10.dtd">
<svg version="1.0" xmlns="http://www.w3.org/2000/svg"
 width="626.000000pt" height="365.000000pt" viewBox="0 0 626.000000 365.000000"
 preserveAspectRatio="xMidYMid meet">

<g transform="translate(0.000000,365.000000) scale(0.100000,-0.100000)"
fill="#000000" stroke="none">
<path d="M2559 3367 c-21 -14 -64 -28 -109 -35 -125 -21 -240 -89 -240 -143 0
-11 -18 -35 -39 -54 -70 -63 -76 -150 -28 -395 22 -114 22 -115 25 -57 2 31 6
57 9 57 4 0 37 -10 75 -22 57 -18 68 -25 68 -44 0 -32 39 -73 75 -80 38 -7
104 39 105 73 0 32 34 48 71 33 20 -9 29 -19 29 -35 0 -31 53 -75 91 -75 32 0
78 37 80 65 1 8 2 20 3 27 1 12 131 60 139 51 3 -2 3 -30 0 -61 -7 -70 3 -64
24 15 18 68 18 68 34 205 11 94 11 113 -4 167 -9 33 -17 80 -17 103 0 66 -29
104 -92 123 -29 8 -75 31 -102 50 -83 59 -143 68 -197 32z m-244 -338 c55 -33
150 -37 225 -10 51 19 65 20 101 11 23 -7 80 -10 126 -9 76 3 85 1 98 -19 26
-36 42 -93 49 -173 l7 -76 -73 -25 -74 -24 -26 28 c-35 38 -80 38 -119 -2 -26
-26 -33 -28 -54 -18 -19 8 -32 8 -51 -1 -23 -10 -29 -8 -54 19 -37 39 -86 41
-123 4 l-25 -25 -71 21 c-39 12 -73 25 -76 30 -10 17 15 172 36 212 23 46 47
78 60 78 4 0 24 -10 44 -21z m144 -303 c30 -32 26 -82 -11 -109 -67 -50 -151
39 -98 106 28 35 77 37 109 3z m266 18 c44 -17 48 -99 7 -130 -56 -43 -139 22
-112 87 19 44 59 60 105 43z"/>
<path d="M2320 2832 c-26 -21 -19 -48 9 -36 9 4 32 10 51 13 48 9 47 35 -1 39
-23 2 -43 -3 -59 -16z"/>
<path d="M2693 2843 c-7 -2 -13 -10 -13 -18 0 -11 17 -16 94 -27 31 -5 29 20
-3 36 -30 16 -55 19 -78 9z"/>
<path d="M2390 2681 c0 -25 19 -38 31 -20 12 19 6 33 -14 37 -11 2 -17 -3 -17
-17z"/>
<path d="M2673 2684 c-8 -21 13 -42 28 -27 13 13 5 43 -11 43 -6 0 -13 -7 -17
-16z"/>
<path d="M1006 2360 c-16 -5 -40 -19 -54 -32 -51 -48 -52 -55 -52 -518 0 -236
2 -430 4 -430 2 0 20 7 40 15 l36 15 0 435 0 435 645 0 c355 0 645 2 645 5 0
12 -33 70 -43 77 -16 10 -1187 8 -1221 -2z"/>
<path d="M2840 2338 c-11 -18 -20 -39 -20 -45 0 -10 114 -13 535 -13 l535 0 0
-537 1 -538 39 45 40 45 0 483 c0 536 2 521 -67 563 l-37 23 -502 4 -503 4
-21 -34z"/>
<path d="M2964 2085 c90 -119 149 -230 181 -338 19 -66 45 -219 45 -269 0 -28
4 -38 15 -38 12 0 15 8 11 33 -3 17 -8 64 -12 102 -8 89 -44 233 -78 309 -34
77 -105 175 -153 211 l-38 29 29 -39z"/>
<path d="M2300 2085 c0 -8 4 -15 10 -15 5 0 7 7 4 15 -4 8 -8 15 -10 15 -2 0
-4 -7 -4 -15z"/>
<path d="M2780 2098 c0 -3 -7 -23 -16 -44 -14 -34 -14 -37 0 -25 8 7 15 16 14
19 -1 4 2 15 7 25 4 10 5 21 1 24 -3 4 -6 4 -6 1z"/>
<path d="M2327 2020 c9 -22 19 -40 24 -40 4 0 -2 18 -12 40 -11 22 -21 40 -23
40 -3 0 3 -18 11 -40z"/>
<path d="M2736 1995 c-3 -8 0 -17 6 -21 6 -4 8 -3 4 4 -3 5 -1 12 6 14 8 3 9
6 1 11 -6 4 -13 0 -17 -8z"/>
<path d="M2710 1941 c0 -5 5 -13 10 -16 6 -3 10 -2 10 4 0 5 -4 13 -10 16 -5
3 -10 2 -10 -4z"/>
<path d="M2382 1895 c6 -14 13 -23 16 -21 7 7 -9 46 -18 46 -5 0 -4 -11 2 -25z"/>
<path d="M2696 1888 c4 -6 -1 -17 -11 -25 -16 -11 -16 -13 -3 -13 9 0 19 7 22
16 9 23 7 34 -5 34 -5 0 -7 -5 -3 -12z"/>
<path d="M2108 1864 c-5 -4 -8 -61 -8 -126 0 -114 -1 -119 -22 -127 -51 -20
-94 -95 -117 -200 -15 -69 -33 -335 -25 -367 8 -31 46 -51 104 -56 40 -3 45
-1 48 20 4 26 -21 40 -42 23 -20 -17 -64 -3 -82 24 -13 20 -14 41 -4 147 23
253 54 349 121 384 62 32 131 -16 163 -113 35 -107 59 -391 35 -419 -19 -23
-52 -34 -66 -22 -18 15 -43 2 -43 -22 0 -30 21 -33 71 -12 72 31 73 34 66 195
-10 213 -41 329 -103 390 -15 16 -40 31 -56 34 l-27 5 -3 125 c-2 69 -6 121
-10 117z m-38 -854 c0 -11 -4 -20 -10 -20 -5 0 -10 9 -10 20 0 11 5 20 10 20
6 0 10 -9 10 -20z m127 -12 c-3 -7 -5 -2 -5 12 0 14 2 19 5 13 2 -7 2 -19 0
-25z"/>
<path d="M2440 1845 c-7 -8 -16 -12 -21 -9 -5 3 -9 0 -9 -5 0 -17 15 -13 35 9
10 11 16 20 13 20 -3 0 -11 -7 -18 -15z"/>
<path d="M2666 1823 c-6 -14 -5 -15 5 -6 7 7 10 15 7 18 -3 3 -9 -2 -12 -12z"/>
<path d="M3240 1436 c0 -2 7 -7 16 -10 8 -3 12 -2 9 4 -6 10 -25 14 -25 6z"/>
<path d="M938 1265 l-38 -64 0 -213 0 -213 37 85 c35 80 37 92 40 210 2 69 3
155 1 192 l-3 66 -37 -63z"/>
<path d="M3174 1285 c25 -19 37 -19 62 0 18 14 17 14 -9 3 -21 -9 -30 -9 -39
0 -7 7 -17 12 -22 12 -6 0 -2 -7 8 -15z"/>
<path d="M3110 1266 c0 -2 8 -10 18 -17 15 -13 16 -12 3 4 -13 16 -21 21 -21
13z"/>
<path d="M3761 1129 c-47 -24 -77 -65 -87 -116 -6 -33 -7 -33 -63 -33 -66 0
-116 -26 -132 -67 -6 -15 -10 -113 -9 -226 0 -207 6 -242 47 -266 10 -6 14
-11 8 -11 -5 0 -639 0 -1407 0 -1174 0 -1398 -2 -1398 -13 0 -24 22 -81 38
-100 14 -16 108 -17 1713 -17 l1698 0 16 23 c8 12 20 39 26 60 9 36 11 37 57
38 26 1 57 0 69 -1 42 -3 102 21 127 51 l26 31 0 215 0 215 -34 34 c-38 38
-34 37 -195 38 l-115 1 -6 30 c-10 46 -27 71 -67 102 -34 26 -43 28 -152 31
-103 3 -121 0 -160 -19z m270 -59 c22 -13 52 -67 44 -80 -4 -6 -75 -10 -171
-10 -159 0 -164 1 -164 21 0 11 13 34 29 50 29 28 32 29 136 29 58 0 115 -5
126 -10z m-71 -279 c5 -11 10 -36 10 -55 l0 -36 48 0 c58 0 75 -10 70 -41 -3
-22 -9 -24 -60 -27 l-57 -3 -3 -61 c-3 -64 -19 -87 -52 -75 -12 5 -16 20 -16
71 l0 65 -56 3 c-104 6 -96 68 8 68 l48 0 0 43 c0 62 37 91 60 48z m-870 -431
c0 -14 -1107 -13 -1115 0 -4 7 177 10 554 10 355 0 561 -4 561 -10z"/>
<path d="M937 738 l-29 -10 28 -29 c15 -16 31 -29 36 -29 4 0 8 18 8 40 0 43
-1 44 -43 28z"/>
<path d="M900 614 l0 -86 31 6 c17 3 35 6 40 6 5 0 9 23 9 50 0 44 -4 54 -32
80 -18 16 -36 30 -40 30 -5 0 -8 -39 -8 -86z"/>
</g>
</svg>
